<?xml version="1.0" encoding="UTF-8"?><svg xmlns="http://www.w3.org/2000/svg" viewBox="0 0 52.18 50.58"><defs><style>.e{fill:none;stroke:#cfcfcf;stroke-miterlimit:10;stroke-width:3.83px;}</style></defs><g id="a"/><g id="b"><g id="c"><g id="d"><path class="e" d="M28.1,3.34l4.55,13.04c.29,.83,1.06,1.4,1.94,1.42l13.59,.36c1.99,.05,2.81,2.57,1.24,3.79l-10.83,8.39c-.69,.53-.98,1.43-.73,2.27l3.92,13.34c.56,1.92-1.6,3.48-3.24,2.33l-11.27-7.85c-.73-.51-1.69-.51-2.42,0l-11.27,7.85c-1.64,1.14-3.8-.42-3.24-2.33l3.92-13.34c.25-.84-.05-1.74-.73-2.27L2.74,21.97c-1.58-1.22-.74-3.75,1.25-3.79l13.73-.28c.89-.02,1.68-.6,1.96-1.44L24.1,3.36c.64-1.91,3.34-1.93,4.01-.02Z"/></g></g></g></svg>