<?xml version="1.0" encoding="utf-8"?>
<!-- Generator: Adobe Illustrator 26.2.1, SVG Export Plug-In . SVG Version: 6.00 Build 0)  -->
<svg version="1.1" id="Layer_1" xmlns="http://www.w3.org/2000/svg" xmlns:xlink="http://www.w3.org/1999/xlink" x="0px" y="0px"
	 viewBox="0 0 52.2 50.6" style="enable-background:new 0 0 52.2 50.6;" xml:space="preserve">
<style type="text/css">
	.st0{fill:#FFFFFF;}
</style>
<g id="a">
</g>
<g id="b">
	<g id="c">
		<g id="d">
			<path class="st0" d="M28.1,3.3l4.6,13c0.3,0.8,1.1,1.4,1.9,1.4l13.6,0.4c2,0,2.8,2.6,1.2,3.8l-10.8,8.4c-0.7,0.5-1,1.4-0.7,2.3
				L41.8,46c0.6,1.9-1.6,3.5-3.2,2.3l-11.3-7.8c-0.7-0.5-1.7-0.5-2.4,0l-11.3,7.8c-1.6,1.1-3.8-0.4-3.2-2.3l3.9-13.3
				c0.2-0.8-0.1-1.7-0.7-2.3L2.7,22C1.2,20.8,2,18.2,4,18.2l13.7-0.3c0.9,0,1.7-0.6,2-1.4l4.4-13.1C24.7,1.4,27.4,1.4,28.1,3.3
				L28.1,3.3z"/>
		</g>
	</g>
</g>
</svg>
