<?xml version="1.0" encoding="UTF-8"?><svg id="a" xmlns="http://www.w3.org/2000/svg" viewBox="0 0 64 64"><defs><style>.c{fill:#2d6ea4;}</style></defs><g id="b"><path class="c" d="M34.09,9.24l4.72,13.51c.3,.86,1.1,1.45,2.01,1.47l14.09,.37c2.06,.05,2.92,2.67,1.29,3.93l-11.22,8.7c-.71,.55-1.02,1.49-.76,2.35l4.06,13.83c.58,1.99-1.66,3.6-3.36,2.42l-11.69-8.13c-.75-.52-1.75-.52-2.51,0l-11.69,8.13c-1.7,1.18-3.94-.43-3.36-2.42l4.06-13.83c.25-.87-.05-1.8-.76-2.35L7.8,28.56c-1.64-1.27-.77-3.89,1.3-3.93l14.24-.29c.93-.02,1.74-.62,2.04-1.5l4.56-13.58c.67-1.98,3.46-2,4.15-.02Z"/></g></svg>