<?xml version="1.0" encoding="UTF-8"?><svg id="a" xmlns="http://www.w3.org/2000/svg" viewBox="0 0 64 64"><defs><style>.c{fill:#353535;}</style></defs><path id="b" class="c" d="M33.67,22.66c-5.16,0-9.34,4.18-9.34,9.34s4.18,9.34,9.34,9.34,9.34-4.18,9.34-9.34h0c0-5.15-4.16-9.33-9.31-9.34,0,0-.02,0-.03,0Zm0,15.41c-3.35,0-6.07-2.72-6.07-6.07s2.72-6.07,6.07-6.07,6.07,2.72,6.07,6.07h0c0,3.35-2.72,6.07-6.07,6.07Zm11.9-15.79c0,1.2-.98,2.18-2.18,2.18s-2.18-.98-2.18-2.18,.98-2.18,2.18-2.18c1.2,0,2.18,.97,2.18,2.17h0Zm6.19,2.22c.06-2.83-1-5.57-2.94-7.63-2.06-1.94-4.8-2.99-7.63-2.94-3.01-.17-12.02-.17-15.03,0-2.83-.06-5.57,1-7.63,2.93-1.94,2.06-3,4.8-2.94,7.63-.17,3.01-.17,12.02,0,15.03-.06,2.83,1,5.57,2.94,7.63,2.06,1.94,4.8,2.99,7.63,2.94,3.01,.17,12.02,.17,15.03,0,2.83,.06,5.57-1,7.63-2.94,1.94-2.06,2.99-4.8,2.94-7.63,.17-3.01,.17-12.01,0-15.02h0Zm-3.88,18.25c-.62,1.58-1.88,2.84-3.46,3.46-2.4,.95-8.09,.73-10.74,.73s-8.35,.21-10.74-.73c-1.58-.62-2.84-1.88-3.46-3.46-.95-2.4-.73-8.09-.73-10.74s-.21-8.35,.73-10.74c.63-1.58,1.88-2.84,3.47-3.46,2.4-.95,8.09-.73,10.74-.73s8.35-.21,10.74,.73c1.58,.62,2.84,1.88,3.46,3.46,.95,2.4,.73,8.09,.73,10.74s.21,8.35-.74,10.74h0Z"/></svg>