<?xml version="1.0" encoding="UTF-8"?><svg id="a" xmlns="http://www.w3.org/2000/svg" viewBox="0 0 64 64"><defs><style>.c{fill:#353535;}</style></defs><path id="b" class="c" d="M55.52,19.35c.34-1.14,0-1.98-1.63-1.98h-5.39c-1.04-.07-1.99,.55-2.34,1.53-1.67,3.97-3.9,7.69-6.62,11.03-1.25,1.25-1.83,1.66-2.52,1.66-.34,0-.86-.4-.86-1.55v-10.68c0-1.37-.38-1.98-1.52-1.98h-8.47c-.72-.04-1.33,.51-1.37,1.23h0c0,1.31,1.94,1.62,2.14,5.28v7.93c0,1.73-.31,2.06-1,2.06-1.83,0-6.28-6.72-8.91-14.4-.53-1.49-1.05-2.09-2.43-2.09h-5.39c-1.54,0-1.85,.72-1.85,1.53,0,1.43,1.83,8.52,8.52,17.89,4.46,6.4,10.73,9.86,16.44,9.86,3.43,0,3.85-.77,3.85-2.1,0-6.11-.31-6.69,1.41-6.69,.8,0,2.17,.4,5.37,3.49,3.66,3.66,4.26,5.3,6.32,5.3h5.39c1.54,0,2.32-.77,1.87-2.29-1.02-3.19-7.95-9.76-8.26-10.2-.8-1.02-.57-1.49,0-2.4,0,0,6.59-9.27,7.27-12.41h0Z"/></svg>