<svg xmlns="http://www.w3.org/2000/svg" xmlns:xlink="http://www.w3.org/1999/xlink" width="160.924" height="56" viewBox="0 0 160.924 56">
  <defs>
    <clipPath id="clip-path">
      <rect id="Rectangle_201" data-name="Rectangle 201" width="43.15" height="31.227" fill="#fefefe"/>
    </clipPath>
  </defs>
  <g id="Logo" transform="translate(-13.033 7.231)">
    <g id="Group_102" data-name="Group 102" transform="translate(13.033 -7.231)">
      <path id="Path_47" data-name="Path 47" d="M18.309,0V12.206l-11.683.052V0H0L.022,29.286h6.6l.059-11.85H18.018l.183,11.85h6.678V0Z" transform="translate(61.872 15.956)" fill="#2d6da3"/>
      <path id="Path_48" data-name="Path 48" d="M202.873,0V29.286h18.921v-5.9l-12.363.151L209.4,0Z" transform="translate(-111.522 15.956)" fill="#2d6da3"/>
      <path id="Path_49" data-name="Path 49" d="M308.064,0V5.728h8.31V29.286h6.678l-.031-23.62H331.3V0Z" transform="translate(-201.43 15.956)" fill="#2d6da3"/>
      <path id="Path_50" data-name="Path 50" d="M502.31,0,494.8,18.889,487.223,0H480.15l12.039,29.642h5.423L509.433,0Z" transform="translate(-348.51 15.954)" fill="#2d6da3"/>
      <path id="Path_64" data-name="Path 64" d="M0,0H56.315V56H0Z" transform="translate(0 0)" fill="#2d6da3"/>
      <g id="Group_100" data-name="Group 100" transform="translate(10.694 12.321)">
        <g id="Group_91" data-name="Group 91" transform="translate(0 0)" clip-path="url(#clip-path)">
          <path id="Path_39" data-name="Path 39" d="M39.4,49.714l-.441-.741a4.442,4.442,0,0,1-.517-2.262l.09-1.036a3.9,3.9,0,0,1,1.2-2.488l.339-.323a11.725,11.725,0,0,1,3.749-2.4l11.4-4.68c1-.4,1.452-.436,8.715-4.357.484-.262,2.751-1.709,3.2-2.033L75.992,23l-5.374,5.083c-3.486,2.9-3.631,3.2-7.68,6.319a72.6,72.6,0,0,1-6.8,4.368l-8.363,5.27a2.766,2.766,0,0,0-1.164,2.308l.022.291a4.619,4.619,0,0,0,2.127,3.556l1.088.692H42.232c-2.115,0-2.235-.175-2.828-1.172" transform="translate(-32.855 -19.659)" fill="#fefefe"/>
          <path id="Path_40" data-name="Path 40" d="M210.743,33.871a.871.871,0,1,0-.871.871.871.871,0,0,0,.871-.871" transform="translate(-178.644 -28.207)" fill="#fefefe"/>
          <path id="Path_41" data-name="Path 41" d="M180.888,12.944a.944.944,0,1,0-.944.944.944.944,0,0,0,.944-.944" transform="translate(-153.002 -10.257)" fill="#fefefe"/>
          <path id="Path_42" data-name="Path 42" d="M137.179,1.089a1.089,1.089,0,1,0-1.089,1.089,1.089,1.089,0,0,0,1.089-1.089" transform="translate(-115.392 0)" fill="#fefefe"/>
          <path id="Path_43" data-name="Path 43" d="M82.469,8.235a1.235,1.235,0,1,0-1.235,1.235,1.235,1.235,0,0,0,1.235-1.235" transform="translate(-68.381 -5.983)" fill="#fefefe"/>
          <path id="Path_44" data-name="Path 44" d="M30.9,49.452A1.452,1.452,0,1,0,29.452,50.9,1.452,1.452,0,0,0,30.9,49.452" transform="translate(-23.933 -41.028)" fill="#fefefe"/>
          <path id="Path_45" data-name="Path 45" d="M2.9,115.452A1.452,1.452,0,1,0,1.452,116.9,1.452,1.452,0,0,0,2.9,115.452" transform="translate(0 -97.442)" fill="#fefefe"/>
          <path id="Path_46" data-name="Path 46" d="M6.631,183.816a1.816,1.816,0,1,0-1.816,1.816,1.815,1.815,0,0,0,1.816-1.816" transform="translate(-2.564 -155.566)" fill="#fefefe"/>
        </g>
      </g>
    </g>
  </g>
</svg>
