<svg xmlns="http://www.w3.org/2000/svg" xmlns:xlink="http://www.w3.org/1999/xlink" width="205.456" height="71.899" viewBox="0 0 205.456 71.899"><defs><clipPath id="a"><rect width="55.091" height="39.868" fill="#435fac"/></clipPath></defs><path d="M23.375,0V15.583L8.459,15.65V0H0L.027,37.391H8.459l.075-15.129H23l.233,15.129h8.526V0Z" transform="translate(78.994 20.612)" fill="#fff"/><path d="M202.873,0V37.391h24.157V29.86l-15.785.193L211.209,0Z" transform="translate(-86.242 20.612)" fill="#fff"/><path d="M308.064,0V7.314h10.61V37.391H327.2L327.16,7.235h10.574V0Z" transform="translate(-171.921 20.612)" fill="#fff"/><path d="M508.443,0l-9.584,24.117L489.181,0H480.15l15.37,37.845h6.923L517.537,0Z" transform="translate(-312.081 20.612)" fill="#fff"/><rect width="71.899" height="71.899" transform="translate(0 0)" fill="#fff"/><g transform="translate(13.653 15.931)"><g transform="translate(0 0)" clip-path="url(#a)"><path d="M39.672,57.107l-.562-.946a5.671,5.671,0,0,1-.661-2.888l.115-1.323a4.982,4.982,0,0,1,1.528-3.177l.433-.412a14.969,14.969,0,0,1,4.787-3.068l14.555-5.975c1.273-.507,1.854-.556,11.126-5.563.618-.334,3.512-2.182,4.08-2.6L86.385,23l-6.861,6.49c-4.45,3.709-4.636,4.08-9.805,8.068a92.691,92.691,0,0,1-8.68,5.576L50.362,49.863a3.532,3.532,0,0,0-1.487,2.946l.027.371a5.9,5.9,0,0,0,2.715,4.54l1.389.884H43.282c-2.7,0-2.853-.224-3.61-1.5" transform="translate(-31.31 -18.735)" fill="#435fac"/><path d="M211.225,34.113a1.113,1.113,0,1,0-1.113,1.113,1.113,1.113,0,0,0,1.113-1.113" transform="translate(-170.244 -26.881)" fill="#435fac"/><path d="M181.411,13.205a1.205,1.205,0,1,0-1.205,1.205,1.205,1.205,0,0,0,1.205-1.205" transform="translate(-145.807 -9.775)" fill="#435fac"/><path d="M137.782,1.391a1.391,1.391,0,1,0-1.391,1.391,1.391,1.391,0,0,0,1.391-1.391" transform="translate(-109.966 0)" fill="#435fac"/><path d="M83.152,8.576a1.576,1.576,0,1,0-1.576,1.576,1.576,1.576,0,0,0,1.576-1.576" transform="translate(-65.165 -5.702)" fill="#435fac"/><path d="M31.709,49.854a1.854,1.854,0,1,0-1.854,1.854,1.854,1.854,0,0,0,1.854-1.854" transform="translate(-22.808 -39.099)" fill="#435fac"/><path d="M3.709,115.854a1.854,1.854,0,1,0-1.854,1.854,1.854,1.854,0,0,0,1.854-1.854" transform="translate(0 -92.86)" fill="#435fac"/><path d="M7.636,184.318a2.318,2.318,0,1,0-2.318,2.318,2.318,2.318,0,0,0,2.318-2.318" transform="translate(-2.444 -148.251)" fill="#435fac"/></g></g></svg>