<?xml version="1.0" encoding="UTF-8"?><svg id="a" xmlns="http://www.w3.org/2000/svg" viewBox="0 0 64 64"><defs><style>.d{fill:#2d6ea4;}</style></defs><path id="b" class="d" d="M31.98,56.38c3.81,0,5.9-2.7,5.9-6.5h-11.81c0,3.8,2.09,6.5,5.92,6.5Z"/><path id="c" class="d" d="M51.12,43.65c-1.89-2.49-5.6-3.95-5.6-15.09s-5.05-16.04-9.76-17.14c-.44-.11-.76-.26-.76-.72v-.35c0-1.65-1.34-2.99-2.99-2.99-1.65,0-2.99,1.34-2.99,2.99h0v.36c0,.45-.32,.61-.76,.72-4.72,1.12-9.76,5.7-9.76,17.14,0,11.14-3.72,12.59-5.6,15.09-.81,1.07-.6,2.6,.48,3.41,.42,.32,.94,.49,1.47,.49H49.18c1.34,0,2.43-1.1,2.42-2.44,0-.53-.17-1.04-.49-1.45Z"/></svg>