<?xml version="1.0" encoding="UTF-8"?><svg id="a" xmlns="http://www.w3.org/2000/svg" viewBox="0 0 64 64"><defs><style>.c{fill:#cfcfcf;}</style></defs><path id="b" class="c" d="M56.01,53l-13.73-13.86c6.72-8.46,5.3-20.76-3.16-27.48-8.46-6.72-20.76-5.3-27.48,3.16-6.72,8.46-5.3,20.76,3.16,27.48,7.19,5.71,17.39,5.65,24.51-.15l13.64,13.77c.8,.84,2.14,.88,2.98,.08,.84-.81,.88-2.14,.08-2.99Zm-29.1-10.68c-8.53,0-15.45-6.91-15.45-15.45,0-8.53,6.91-15.45,15.45-15.45,8.53,0,15.45,6.91,15.45,15.45,0,4.1-1.63,8.03-4.52,10.92-2.89,2.91-6.82,4.54-10.92,4.52Z"/></svg>