<?xml version="1.0" encoding="UTF-8"?><svg id="a" xmlns="http://www.w3.org/2000/svg" viewBox="0 0 64 64"><defs><style>.c{fill:#353535;}</style></defs><path id="b" class="c" d="M33.33,13.13c2.06-.03,4.11-.02,6.16-.03,.06,2.46,1.05,4.8,2.76,6.57,1.85,1.66,4.2,2.65,6.68,2.82v6.35c-2.29-.05-4.54-.57-6.62-1.53-.89-.42-1.74-.91-2.55-1.47-.02,4.6,.02,9.2-.03,13.79-.12,2.23-.86,4.38-2.13,6.21-2.12,3.07-5.58,4.95-9.31,5.06-2.26,.1-4.49-.46-6.43-1.62-3.23-1.92-5.37-5.26-5.75-9-.03-.79-.05-1.58-.02-2.35,.65-6.52,6.46-11.28,12.98-10.63,.26,.03,.52,.06,.77,.1,.03,2.33-.06,4.66-.06,7-2.82-.99-5.9,.49-6.89,3.31v.03c-.26,.82-.33,1.69-.23,2.54,.43,2.69,2.8,4.63,5.51,4.52,1.79-.05,3.43-1.01,4.36-2.54,.35-.49,.57-1.07,.65-1.67,.16-2.82,.09-5.62,.11-8.44,.02-6.35-.02-12.68,.03-19.02h0Z"/></svg>