<?xml version="1.0" encoding="UTF-8"?><svg id="a" xmlns="http://www.w3.org/2000/svg" viewBox="0 0 64 64"><defs><style>.c{fill:#353535;}</style></defs><path id="b" class="c" d="M45.98,23.18c.02,.34,.02,.67,.02,1.01,0,10.25-7.8,22.05-22.05,22.05-4.22,.01-8.35-1.2-11.9-3.48,.62,.07,1.25,.1,1.87,.1,3.49,0,6.88-1.16,9.62-3.32-3.32-.06-6.23-2.22-7.25-5.38,.48,.08,.97,.12,1.46,.12,.69,0,1.37-.09,2.04-.26-3.62-.73-6.22-3.91-6.22-7.61v-.1c1.07,.6,2.27,.94,3.5,.98-3.41-2.28-4.46-6.81-2.4-10.36,3.94,4.85,9.74,7.79,15.98,8.11-.12-.58-.19-1.18-.19-1.78,0-4.28,3.48-7.75,7.77-7.75,2.14,0,4.18,.89,5.64,2.45,1.74-.34,3.4-.97,4.92-1.88-.58,1.79-1.79,3.31-3.41,4.27,1.54-.18,3.04-.58,4.46-1.2-1.06,1.54-2.38,2.9-3.89,4.01h0Z"/></svg>