<?xml version="1.0" encoding="UTF-8"?><svg id="a" xmlns="http://www.w3.org/2000/svg" viewBox="0 0 64 64"><defs><style>.c{fill:#353535;}</style></defs><path id="b" class="c" d="M25.04,16.07l-2.19,4.34-2.19-4.34h-2.79l3.95,6.87h.02v5.28h2.02v-5.29h.02l3.95-6.86h-2.79Zm5.91,4.05c.56,0,1.01,.46,1.01,1.01v4.05c.02,.56-.42,1.03-.98,1.04s-1.03-.42-1.04-.98c0-.02,0-.04,0-.06v-4.05c0-.56,.46-1,1.01-1.01Zm0-2.03c-1.68,0-3.03,1.36-3.04,3.04v4.05c0,1.68,1.36,3.04,3.04,3.04s3.04-1.36,3.04-3.04v-4.05c0-1.68-1.36-3.03-3.04-3.04h0Zm9.11,0v7.97c-.88,.74-2.02,1.18-2.02-1.44v-6.53h-2.03v6.94h0c.03,1.67,.38,4.69,4.05,2.24v.95h2.03v-10.13h-2.03Zm3.04,20.25c-.56,0-1.01,.45-1.01,1.01v1.01h2.02v-1.01c0-.56-.45-1.01-1.01-1.01h0Zm-9.11,1.01v5.32c.69,.69,2.02,.76,2.02-.25v-4.75c0-1.01-1.01-1.33-2.02-.32Zm14.01-4.89c-.08-2.24-1.9-4.03-4.14-4.06-2.21-.11-7.26-.17-11.7-.17s-9.85,.06-12.06,.17c-2.24,.04-4.06,1.82-4.14,4.06-.13,2.38-.2,3.24-.2,4.43s.07,2.97,.2,5.35c.08,2.24,1.9,4.02,4.14,4.06,2.21,.11,7.62,.17,12.06,.17s9.49-.06,11.7-.17c2.24-.04,4.06-1.82,4.14-4.06,.11-1.98,.17-3.76,.17-5.35s-.06-2.45-.17-4.43h0Zm-26.16,11.98h-2.03v-10.13h-2.02v-2.03h6.08v2.02h-2.03v10.13Zm8.1,0h-2.02v-.95c-3.85,2.16-4.02,.07-4.05-1.6h0v-5.55h2.02v5.58c0,1.22,1.14,1.1,2.03,.37v-5.95h2.02v8.1Zm8.1-2.05c0,2.12-2.17,2.73-4.05,1.09v.97h-2.02v-12.15h2.03v3.29c2.02-2.02,4.05-1.27,4.05,.76v6.05Zm8.09-4.02v1.01h-4.05v2.02c-.02,.56,.42,1.03,.98,1.04s1.03-.42,1.04-.98c0-.02,0-.04,0-.06v-1.01h2.03v1.01c0,1.68-1.36,3.04-3.04,3.04s-3.04-1.36-3.04-3.04v-4.05c0-1.68,1.36-3.04,3.04-3.04s3.04,1.36,3.04,3.04v1.01h0Z"/></svg>